<svg xmlns="http://www.w3.org/2000/svg" width="13" height="13" viewBox="0 0 13 13" fill="none">
<path d="M0.807 0.892C1.34 0.32 2.1 0 2.997 0L7.565 0C8.464 0 9.224 0.32 9.757 0.892C10.287 1.462 10.562 2.247 10.562 3.129L10.562 7.434C10.562 8.315 10.287 9.101 9.757 9.67C9.224 10.242 8.464 10.562 7.565 10.562L2.997 10.562C2.098 10.562 1.338 10.242 0.805 9.67C0.275 9.101 0 8.315 0 7.434L0 3.129C0 2.247 0.277 1.461 0.807 0.892ZM1.402 1.446C1.035 1.84 0.812 2.416 0.812 3.129L0.812 7.434C0.812 8.147 1.034 8.723 1.4 9.116C1.763 9.506 2.299 9.75 2.997 9.75L7.565 9.75C8.263 9.75 8.799 9.506 9.162 9.116C9.529 8.723 9.75 8.147 9.75 7.434L9.75 3.129C9.75 2.415 9.529 1.839 9.162 1.446C8.799 1.056 8.263 0.812 7.565 0.812L2.997 0.812C2.301 0.812 1.765 1.056 1.402 1.446Z" fill="currentColor" fill-rule="evenodd" transform="matrix(1 0 0 1 1.2188 1.2188)"/>
<path d="M0 0.406C0 0.182 0.182 0 0.406 0L4.322 0C4.546 0 4.728 0.182 4.728 0.406C4.728 0.631 4.546 0.812 4.322 0.812L0.406 0.812C0.182 0.812 0 0.631 0 0.406ZM0 3.228C0 3.003 0.182 2.821 0.406 2.821L4.322 2.821C4.546 2.821 4.728 3.003 4.728 3.228C4.728 3.452 4.546 3.634 4.322 3.634L0.406 3.634C0.182 3.634 0 3.452 0 3.228Z" fill="currentColor" fill-rule="evenodd" transform="matrix(1 0 0 1 4.1366 4.6825)"/>
</svg>