<svg xmlns="http://www.w3.org/2000/svg" width="9.6221" height="9.8203" viewBox="0 0 9.6221 9.8203" fill="none">
<path d="M4.811 9.82C5.097 9.82 5.336 9.593 5.336 9.313L5.336 5.435L9.103 5.435C9.383 5.435 9.622 5.196 9.622 4.91C9.622 4.624 9.383 4.391 9.103 4.391L5.336 4.391L5.336 0.507C5.336 0.227 5.097 0 4.811 0C4.525 0 4.292 0.227 4.292 0.507L4.292 4.391L0.519 4.391C0.239 4.391 0 4.624 0 4.91C0 5.196 0.239 5.435 0.519 5.435L4.292 5.435L4.292 9.313C4.292 9.593 4.525 9.82 4.811 9.82Z" fill="#999C9F"/>
</svg>